<svg class="icon" xmlns="http://www.w3.org/2000/svg" xmlns:xlink="http://www.w3.org/1999/xlink" width="218" height="45" viewBox="0 0 218 45" xmlns:v="https://vecta.io/nano"><g fill-rule="evenodd"><path d="M44.6 22.2c0-11.4-8.6-20.8-19.7-22v2.9c9.5 1.2 16.9 9.4 16.9 19.2s-7.4 17.9-16.9 19.2v2.9c11-1.4 19.7-10.8 19.7-22.2m-5.7.5c0-7.5-5.6-13.7-13-14.9v2.9c5.8 1.1 10.2 6.1 10.2 12s-4.4 10.9-10.2 12v2.9c7.4-1.2 13-7.4 13-14.9"></path><path d="M32.4 22c0-3.7-2.7-6.8-6.5-7.8v2.9c2.2.8 3.7 2.7 3.7 4.9s-1.5 4-3.7 4.9v2.9c3.8-1 6.5-4.1 6.5-7.8M22 44.1l-1.6-.2C8.8 42.8 0 33.4 0 22.1 0 10.7 8.7 1.3 20.4.2L22 0v12.6l-1.1.3c-4.4 1.2-7.5 4.9-7.8 9.2 0 4.4 3.2 8.2 7.7 9.1l1.2.2v12.7zM19 3.2C9.7 4.9 2.9 12.7 2.9 22.1c0 9.3 6.9 17.2 16.2 18.8v-7.2c-5.2-1.6-8.9-6.3-8.9-11.7v-.1c.3-5.2 3.8-9.7 8.8-11.5V3.2zm45.4 11.1c-1 0-2.1.1-3.1.4-1 .2-1.9.5-2.7.8s-1.3.6-1.6.8v14.8h4.1V18c.4-.1.9-.1 1.4-.2.5 0 1.1-.1 1.7-.1h1.7c.6 0 1 .1 1.5.2v-3.1c-.3-.2-.7-.3-1.1-.4-.5-.1-1.1-.1-1.9-.1m9.7 3.6c.5-.3 1.1-.5 1.8-.5 1.1 0 1.9.4 2.5 1.1.4.5.6 1.4.8 2.4h-6.5l.3-1.4c.2-.7.6-1.3 1.1-1.6m8.2.7c-.5-1.4-1.2-2.5-2.2-3.3s-2.4-1.1-4-1.1c-2.3 0-4.1.7-5.4 2.2s-1.9 3.6-1.9 6.4c0 1.7.3 3.2.9 4.5.6 1.2 1.5 2.2 2.6 2.8 1.1.7 2.5 1 4 1 1.1 0 2.2-.1 3.1-.3s1.7-.5 2.4-.8v-3.6l-1.3.6c-.5.2-1 .4-1.6.5s-1.2.2-1.8.2c-1.5 0-2.7-.4-3.4-1.3-.6-.7-.9-1.6-1-2.7h10.4a23.73 23.73 0 0 0-.8-5.1M95 27.9c-.5.2-1.4.2-2.5.2-.5 0-1-.1-1.5-.3s-.8-.4-1.1-.8-.4-.8-.4-1.3c0-.8.3-1.3.8-1.7s1.4-.5 2.5-.5c.8 0 1.5.1 2.2.3l.8.3v2.8c0 .5-.2.8-.8 1m3.3-12c-.5-.4-1-.7-1.5-1-.6-.2-1.2-.4-1.8-.5s-1.2-.1-1.7-.1c-1.3 0-2.5.1-3.7.4-1.1.3-2 .6-2.6 1v3.6c.6-.5 1.4-.9 2.3-1.2s1.9-.5 2.8-.5c1.2 0 2.1.2 2.7.7.7.5 1 1.2 1 2.3v1.3c-.2-.1-.4-.2-.7-.3a18.88 18.88 0 0 0-1.8-.6l-2.1-.2c-1.2 0-2.3.2-3.1.6-.9.4-1.5 1-1.9 1.7s-.7 1.7-.7 2.8c0 1 .2 1.9.6 2.5a4.63 4.63 0 0 0 1.5 1.6c.6.4 1.3.7 2.1.9s1.6.3 2.6.3c1.5 0 2.8-.1 3.9-.3s2-.6 2.6-1.2.9-1.3.9-2.3v-7.6c0-.9-.1-1.6-.4-2.3-.2-.7-.6-1.2-1-1.6"></path><use xlink:href="#B"></use><path d="M127.8 25.4l-3.9-11.1h-4.7l6.6 15.8c-.1.4-.2.7-.4 1-.3.6-.6 1-1 1.3s-.9.4-1.5.4c-.3 0-.6 0-.9-.1s-.6-.1-.9-.3v3.3c.3.1.7.2 1.1.3s.9.1 1.4.1c.7 0 1.4-.2 2.1-.5s1.4-.9 2-1.7c.7-.8 1.3-1.9 1.8-3.3l6.5-16.5h-4.3l-3.9 11.3zm32.6-10.5c-1-.4-2.2-.6-3.7-.6-.9 0-1.8.1-2.8.3-.9.2-1.8.5-2.6.9-.3-.2-.7-.4-1.1-.6-1-.4-2.2-.6-3.7-.6l-2.1.1-2.2.4-2 .6c-.6.2-1.2.4-1.6.7v15.1h4.1V18.3c.4-.2.9-.3 1.3-.4.5-.1 1-.2 1.5-.2a7.18 7.18 0 0 1 1.7.2c.4.2.8.4 1.1.7s.4.6.5 1 .2.8.2 1.2V31h4.1V20.2c0-.6 0-1.2-.1-1.7.3-.2.7-.4 1.1-.5.5-.2 1-.2 1.5-.2a7.18 7.18 0 0 1 1.7.2c.4.2.8.4 1.1.7s.4.6.5 1 .2.8.2 1.2v10.2h4.1V20.2c0-1.4-.2-2.5-.7-3.4-.4-.9-1.1-1.5-2.1-1.9m18 10.5c-.3.8-.7 1.4-1.3 1.8s-1.3.6-2.2.6c-1.3 0-2.3-.4-2.9-1.3s-.9-2.2-.9-3.8c0-1.2.1-2.1.4-2.9.2-.8.7-1.3 1.2-1.7.6-.4 1.3-.6 2.2-.6s1.6.2 2.2.5 1 .9 1.3 1.7.4 1.7.4 2.9c0 1.1-.1 2-.4 2.8m.9-10.2c-1.2-.6-2.6-.9-4.3-.9-2.5 0-4.4.7-5.8 2-1.3 1.3-2 3.5-2 6.4 0 2.7.6 4.8 1.9 6.3s3.2 2.2 5.8 2.2c2.5 0 4.4-.7 5.8-2.2s2-3.5 2-6.3c0-1.9-.3-3.4-.9-4.7-.5-1.3-1.4-2.2-2.5-2.8"></path><use xlink:href="#B" x="82.9"></use><path d="M208.9 17.9c.5-.3 1.1-.5 1.8-.5 1.1 0 1.9.4 2.5 1.1.4.5.6 1.4.8 2.4h-6.5l.3-1.4c.2-.7.6-1.3 1.1-1.6m4.7 9.6c-.6.1-1.2.2-1.8.2-1.5 0-2.7-.4-3.4-1.3-.6-.7-.9-1.6-1-2.7h10.4c0-1.9-.2-3.6-.7-5s-1.2-2.5-2.2-3.3-2.4-1.1-4-1.1c-2.3 0-4.1.7-5.4 2.2s-1.9 3.6-1.9 6.4c0 1.7.3 3.2.9 4.5.6 1.2 1.5 2.2 2.6 2.8 1.1.7 2.5 1 4 1 1.1 0 2.2-.1 3.1-.3s1.7-.5 2.4-.8v-3.6l-1.3.6c-.6.1-1.1.3-1.7.4"></path></g><defs><path id="B" d="M113.9 26.4c0 .4-.3.7-.9.9s-1.3.3-2.2.3c-1.1 0-2-.2-2.6-.7-.6-.4-1.1-1.1-1.3-1.8-.3-.8-.4-1.7-.4-2.7 0-1.2.2-2.1.5-2.9s.8-1.3 1.4-1.7c.7-.4 1.5-.5 2.4-.5.5 0 1 .1 1.5.2s1 .3 1.5.6v8.3zm0-11.5c-.2-.1-.4-.2-.7-.3-.6-.2-1.2-.4-1.8-.4-.6-.1-1-.1-1.4-.1-2.6 0-4.5.7-5.7 2.2-1.3 1.5-1.9 3.5-1.9 6.1 0 1.7.2 3.2.7 4.3.4 1.1 1 2 1.8 2.7.8.6 1.7 1.1 2.7 1.4s2.1.4 3.2.4c.9 0 1.7-.1 2.6-.3s1.6-.4 2.3-.8c.7-.3 1.3-.8 1.7-1.3s.6-1.2.6-1.9v-19h-4v7z"></path></defs></svg>